<svg width="180" height="57" viewBox="0 0 180 57" fill="none" xmlns="http://www.w3.org/2000/svg">
<g clip-path="url(#clip0_3_52)">
<rect width="180" height="57" rx="28.5" fill="#E3D5AB"/>
<g filter="url(#filter0_d_3_52)">
<path d="M48.0926 34V21.4H53.5466C54.6746 21.4 55.6466 21.586 56.4626 21.958C57.2786 22.318 57.9086 22.84 58.3526 23.524C58.7966 24.208 59.0186 25.024 59.0186 25.972C59.0186 26.908 58.7966 27.718 58.3526 28.402C57.9086 29.074 57.2786 29.59 56.4626 29.95C55.6466 30.31 54.6746 30.49 53.5466 30.49H49.7126L51.0086 29.212V34H48.0926ZM56.1026 34L52.9526 29.428H56.0666L59.2526 34H56.1026ZM51.0086 29.536L49.7126 28.168H53.3846C54.2846 28.168 54.9566 27.976 55.4006 27.592C55.8446 27.196 56.0666 26.656 56.0666 25.972C56.0666 25.276 55.8446 24.736 55.4006 24.352C54.9566 23.968 54.2846 23.776 53.3846 23.776H49.7126L51.0086 22.39V29.536ZM65.937 34.144C64.833 34.144 63.861 33.928 63.021 33.496C62.193 33.064 61.551 32.476 61.095 31.732C60.639 30.976 60.411 30.118 60.411 29.158C60.411 28.186 60.633 27.328 61.077 26.584C61.533 25.828 62.151 25.24 62.931 24.82C63.711 24.388 64.593 24.172 65.577 24.172C66.525 24.172 67.377 24.376 68.133 24.784C68.901 25.18 69.507 25.756 69.951 26.512C70.395 27.256 70.617 28.15 70.617 29.194C70.617 29.302 70.611 29.428 70.599 29.572C70.587 29.704 70.575 29.83 70.563 29.95H62.697V28.312H69.087L68.007 28.798C68.007 28.294 67.905 27.856 67.701 27.484C67.497 27.112 67.215 26.824 66.855 26.62C66.495 26.404 66.075 26.296 65.595 26.296C65.115 26.296 64.689 26.404 64.317 26.62C63.957 26.824 63.675 27.118 63.471 27.502C63.267 27.874 63.165 28.318 63.165 28.834V29.266C63.165 29.794 63.279 30.262 63.507 30.67C63.747 31.066 64.077 31.372 64.497 31.588C64.929 31.792 65.433 31.894 66.009 31.894C66.525 31.894 66.975 31.816 67.359 31.66C67.755 31.504 68.115 31.27 68.439 30.958L69.933 32.578C69.489 33.082 68.931 33.472 68.259 33.748C67.587 34.012 66.813 34.144 65.937 34.144ZM77.0404 37.636C76.1284 37.636 75.2464 37.522 74.3944 37.294C73.5544 37.078 72.8524 36.748 72.2884 36.304L73.4044 34.288C73.8124 34.624 74.3284 34.888 74.9524 35.08C75.5884 35.284 76.2124 35.386 76.8244 35.386C77.8204 35.386 78.5404 35.164 78.9844 34.72C79.4404 34.276 79.6684 33.616 79.6684 32.74V31.282L79.8484 28.852L79.8124 26.404V24.316H82.4764V32.38C82.4764 34.18 82.0084 35.506 81.0724 36.358C80.1364 37.21 78.7924 37.636 77.0404 37.636ZM76.6084 33.532C75.7084 33.532 74.8924 33.34 74.1604 32.956C73.4404 32.56 72.8584 32.014 72.4144 31.318C71.9824 30.61 71.7664 29.788 71.7664 28.852C71.7664 27.904 71.9824 27.082 72.4144 26.386C72.8584 25.678 73.4404 25.132 74.1604 24.748C74.8924 24.364 75.7084 24.172 76.6084 24.172C77.4244 24.172 78.1444 24.34 78.7684 24.676C79.3924 25 79.8784 25.51 80.2264 26.206C80.5744 26.89 80.7484 27.772 80.7484 28.852C80.7484 29.92 80.5744 30.802 80.2264 31.498C79.8784 32.182 79.3924 32.692 78.7684 33.028C78.1444 33.364 77.4244 33.532 76.6084 33.532ZM77.1664 31.228C77.6584 31.228 78.0964 31.132 78.4804 30.94C78.8644 30.736 79.1644 30.454 79.3804 30.094C79.5964 29.734 79.7044 29.32 79.7044 28.852C79.7044 28.372 79.5964 27.958 79.3804 27.61C79.1644 27.25 78.8644 26.974 78.4804 26.782C78.0964 26.578 77.6584 26.476 77.1664 26.476C76.6744 26.476 76.2364 26.578 75.8524 26.782C75.4684 26.974 75.1624 27.25 74.9344 27.61C74.7184 27.958 74.6104 28.372 74.6104 28.852C74.6104 29.32 74.7184 29.734 74.9344 30.094C75.1624 30.454 75.4684 30.736 75.8524 30.94C76.2364 31.132 76.6744 31.228 77.1664 31.228ZM85.0899 34V24.316H87.8979V34H85.0899ZM86.4939 22.966C85.9779 22.966 85.5579 22.816 85.2339 22.516C84.9099 22.216 84.7479 21.844 84.7479 21.4C84.7479 20.956 84.9099 20.584 85.2339 20.284C85.5579 19.984 85.9779 19.834 86.4939 19.834C87.0099 19.834 87.4299 19.978 87.7539 20.266C88.0779 20.542 88.2399 20.902 88.2399 21.346C88.2399 21.814 88.0779 22.204 87.7539 22.516C87.4419 22.816 87.0219 22.966 86.4939 22.966ZM93.762 34.144C92.934 34.144 92.136 34.048 91.368 33.856C90.612 33.652 90.012 33.4 89.568 33.1L90.504 31.084C90.948 31.36 91.47 31.588 92.07 31.768C92.682 31.936 93.282 32.02 93.87 32.02C94.518 32.02 94.974 31.942 95.238 31.786C95.514 31.63 95.652 31.414 95.652 31.138C95.652 30.91 95.544 30.742 95.328 30.634C95.124 30.514 94.848 30.424 94.5 30.364C94.152 30.304 93.768 30.244 93.348 30.184C92.94 30.124 92.526 30.046 92.106 29.95C91.686 29.842 91.302 29.686 90.954 29.482C90.606 29.278 90.324 29.002 90.108 28.654C89.904 28.306 89.802 27.856 89.802 27.304C89.802 26.692 89.976 26.152 90.324 25.684C90.684 25.216 91.2 24.85 91.872 24.586C92.544 24.31 93.348 24.172 94.284 24.172C94.944 24.172 95.616 24.244 96.3 24.388C96.984 24.532 97.554 24.742 98.01 25.018L97.074 27.016C96.606 26.74 96.132 26.554 95.652 26.458C95.184 26.35 94.728 26.296 94.284 26.296C93.66 26.296 93.204 26.38 92.916 26.548C92.628 26.716 92.484 26.932 92.484 27.196C92.484 27.436 92.586 27.616 92.79 27.736C93.006 27.856 93.288 27.952 93.636 28.024C93.984 28.096 94.362 28.162 94.77 28.222C95.19 28.27 95.61 28.348 96.03 28.456C96.45 28.564 96.828 28.72 97.164 28.924C97.512 29.116 97.794 29.386 98.01 29.734C98.226 30.07 98.334 30.514 98.334 31.066C98.334 31.666 98.154 32.2 97.794 32.668C97.434 33.124 96.912 33.484 96.228 33.748C95.556 34.012 94.734 34.144 93.762 34.144ZM104.027 34.144C102.887 34.144 101.999 33.856 101.363 33.28C100.727 32.692 100.409 31.822 100.409 30.67V22.174H103.217V30.634C103.217 31.042 103.325 31.36 103.541 31.588C103.757 31.804 104.051 31.912 104.423 31.912C104.867 31.912 105.245 31.792 105.557 31.552L106.313 33.532C106.025 33.736 105.677 33.892 105.269 34C104.873 34.096 104.459 34.144 104.027 34.144ZM98.9145 26.692V24.532H105.629V26.692H98.9145ZM112.396 34.144C111.292 34.144 110.32 33.928 109.48 33.496C108.652 33.064 108.01 32.476 107.554 31.732C107.098 30.976 106.87 30.118 106.87 29.158C106.87 28.186 107.092 27.328 107.536 26.584C107.992 25.828 108.61 25.24 109.39 24.82C110.17 24.388 111.052 24.172 112.036 24.172C112.984 24.172 113.836 24.376 114.592 24.784C115.36 25.18 115.966 25.756 116.41 26.512C116.854 27.256 117.076 28.15 117.076 29.194C117.076 29.302 117.07 29.428 117.058 29.572C117.046 29.704 117.034 29.83 117.022 29.95H109.156V28.312H115.546L114.466 28.798C114.466 28.294 114.364 27.856 114.16 27.484C113.956 27.112 113.674 26.824 113.314 26.62C112.954 26.404 112.534 26.296 112.054 26.296C111.574 26.296 111.148 26.404 110.776 26.62C110.416 26.824 110.134 27.118 109.93 27.502C109.726 27.874 109.624 28.318 109.624 28.834V29.266C109.624 29.794 109.738 30.262 109.966 30.67C110.206 31.066 110.536 31.372 110.956 31.588C111.388 31.792 111.892 31.894 112.468 31.894C112.984 31.894 113.434 31.816 113.818 31.66C114.214 31.504 114.574 31.27 114.898 30.958L116.392 32.578C115.948 33.082 115.39 33.472 114.718 33.748C114.046 34.012 113.272 34.144 112.396 34.144ZM118.945 34V24.316H121.627V27.052L121.249 26.26C121.537 25.576 121.999 25.06 122.635 24.712C123.271 24.352 124.045 24.172 124.957 24.172V26.764C124.837 26.752 124.729 26.746 124.633 26.746C124.537 26.734 124.435 26.728 124.327 26.728C123.559 26.728 122.935 26.95 122.455 27.394C121.987 27.826 121.753 28.504 121.753 29.428V34H118.945Z" fill="black"/>
</g>
<path fill-rule="evenodd" clip-rule="evenodd" d="M140.005 21L148.005 29L140.005 37L138 35L144.005 29L138 23L140.005 21Z" fill="black"/>
</g>
<defs>
<filter id="filter0_d_3_52" x="23.0926" y="-5.166" width="126.865" height="67.802" filterUnits="userSpaceOnUse" color-interpolation-filters="sRGB">
<feFlood flood-opacity="0" result="BackgroundImageFix"/>
<feColorMatrix in="SourceAlpha" type="matrix" values="0 0 0 0 0 0 0 0 0 0 0 0 0 0 0 0 0 0 127 0" result="hardAlpha"/>
<feOffset/>
<feGaussianBlur stdDeviation="12.5"/>
<feComposite in2="hardAlpha" operator="out"/>
<feColorMatrix type="matrix" values="0 0 0 0 0.890196 0 0 0 0 0.835294 0 0 0 0 0.670588 0 0 0 0.25 0"/>
<feBlend mode="normal" in2="BackgroundImageFix" result="effect1_dropShadow_3_52"/>
<feBlend mode="normal" in="SourceGraphic" in2="effect1_dropShadow_3_52" result="shape"/>
</filter>
<clipPath id="clip0_3_52">
<rect width="180" height="57" rx="28.5" fill="white"/>
</clipPath>
</defs>
</svg>
