<svg width="180" height="57" viewBox="0 0 180 57" fill="none" xmlns="http://www.w3.org/2000/svg">
<rect width="180" height="57" rx="28.5" fill="#E3D5AB"/>
<path d="M64.9598 35V22.4H67.8758V32.624H74.1938V35H64.9598ZM80.1804 35.144C79.1484 35.144 78.2304 34.928 77.4264 34.496C76.6344 34.064 76.0044 33.476 75.5364 32.732C75.0804 31.976 74.8524 31.118 74.8524 30.158C74.8524 29.186 75.0804 28.328 75.5364 27.584C76.0044 26.828 76.6344 26.24 77.4264 25.82C78.2304 25.388 79.1484 25.172 80.1804 25.172C81.2004 25.172 82.1124 25.388 82.9164 25.82C83.7204 26.24 84.3504 26.822 84.8064 27.566C85.2624 28.31 85.4904 29.174 85.4904 30.158C85.4904 31.118 85.2624 31.976 84.8064 32.732C84.3504 33.476 83.7204 34.064 82.9164 34.496C82.1124 34.928 81.2004 35.144 80.1804 35.144ZM80.1804 32.84C80.6484 32.84 81.0684 32.732 81.4404 32.516C81.8124 32.3 82.1064 31.994 82.3224 31.598C82.5384 31.19 82.6464 30.71 82.6464 30.158C82.6464 29.594 82.5384 29.114 82.3224 28.718C82.1064 28.322 81.8124 28.016 81.4404 27.8C81.0684 27.584 80.6484 27.476 80.1804 27.476C79.7124 27.476 79.2924 27.584 78.9204 27.8C78.5484 28.016 78.2484 28.322 78.0204 28.718C77.8044 29.114 77.6964 29.594 77.6964 30.158C77.6964 30.71 77.8044 31.19 78.0204 31.598C78.2484 31.994 78.5484 32.3 78.9204 32.516C79.2924 32.732 79.7124 32.84 80.1804 32.84ZM91.9213 38.636C91.0093 38.636 90.1273 38.522 89.2753 38.294C88.4353 38.078 87.7333 37.748 87.1693 37.304L88.2853 35.288C88.6933 35.624 89.2093 35.888 89.8333 36.08C90.4693 36.284 91.0933 36.386 91.7053 36.386C92.7013 36.386 93.4213 36.164 93.8653 35.72C94.3213 35.276 94.5493 34.616 94.5493 33.74V32.282L94.7293 29.852L94.6933 27.404V25.316H97.3573V33.38C97.3573 35.18 96.8893 36.506 95.9533 37.358C95.0173 38.21 93.6733 38.636 91.9213 38.636ZM91.4893 34.532C90.5893 34.532 89.7733 34.34 89.0413 33.956C88.3213 33.56 87.7393 33.014 87.2953 32.318C86.8633 31.61 86.6473 30.788 86.6473 29.852C86.6473 28.904 86.8633 28.082 87.2953 27.386C87.7393 26.678 88.3213 26.132 89.0413 25.748C89.7733 25.364 90.5893 25.172 91.4893 25.172C92.3053 25.172 93.0253 25.34 93.6493 25.676C94.2733 26 94.7593 26.51 95.1073 27.206C95.4553 27.89 95.6293 28.772 95.6293 29.852C95.6293 30.92 95.4553 31.802 95.1073 32.498C94.7593 33.182 94.2733 33.692 93.6493 34.028C93.0253 34.364 92.3053 34.532 91.4893 34.532ZM92.0473 32.228C92.5393 32.228 92.9773 32.132 93.3613 31.94C93.7453 31.736 94.0453 31.454 94.2613 31.094C94.4773 30.734 94.5853 30.32 94.5853 29.852C94.5853 29.372 94.4773 28.958 94.2613 28.61C94.0453 28.25 93.7453 27.974 93.3613 27.782C92.9773 27.578 92.5393 27.476 92.0473 27.476C91.5553 27.476 91.1173 27.578 90.7333 27.782C90.3493 27.974 90.0433 28.25 89.8153 28.61C89.5993 28.958 89.4913 29.372 89.4913 29.852C89.4913 30.32 89.5993 30.734 89.8153 31.094C90.0433 31.454 90.3493 31.736 90.7333 31.94C91.1173 32.132 91.5553 32.228 92.0473 32.228ZM99.9708 35V25.316H102.779V35H99.9708ZM101.375 23.966C100.859 23.966 100.439 23.816 100.115 23.516C99.7908 23.216 99.6288 22.844 99.6288 22.4C99.6288 21.956 99.7908 21.584 100.115 21.284C100.439 20.984 100.859 20.834 101.375 20.834C101.891 20.834 102.311 20.978 102.635 21.266C102.959 21.542 103.121 21.902 103.121 22.346C103.121 22.814 102.959 23.204 102.635 23.516C102.323 23.816 101.903 23.966 101.375 23.966ZM111.271 25.172C112.039 25.172 112.723 25.328 113.323 25.64C113.935 25.94 114.415 26.408 114.763 27.044C115.111 27.668 115.285 28.472 115.285 29.456V35H112.477V29.888C112.477 29.108 112.303 28.532 111.955 28.16C111.619 27.788 111.139 27.602 110.515 27.602C110.071 27.602 109.669 27.698 109.309 27.89C108.961 28.07 108.685 28.352 108.481 28.736C108.289 29.12 108.193 29.612 108.193 30.212V35H105.385V25.316H108.067V27.998L107.563 27.188C107.911 26.54 108.409 26.042 109.057 25.694C109.705 25.346 110.443 25.172 111.271 25.172Z" fill="black"/>
</svg>
